# xmcd CD database file
#
# Track frame offsets:
#	150
#	19129
#	35087
#	53644
#	69242
#	95370
#	118253
#	132797
#	154343
#	180609
#	196788
#
# Disc length: 2844 seconds
#
# Revision: 6
# Processed by: cddbd v1.5.2PL0 Copyright (c) Steve Scherf et al.
# Submitted via: CDex 1.70beta1
#
DISCID=900b1a0b
DTITLE=Nita Aartsen Quatro - All Nite Out
DYEAR=2008
DGENRE=Jazz
TTITLE0=Usai
TTITLE1=Selamanya
TTITLE2=De Javu
TTITLE3=Let's Dance
TTITLE4=Good Times
TTITLE5=Windows Of The Night
TTITLE6=Knock On My Door
TTITLE7=On Fire
TTITLE8=Friendly Persuasion
TTITLE9=Ring My Bell
TTITLE10=When East Meets West
EXTD=YEAR: 2008
EXTT0=
EXTT1=
EXTT2=
EXTT3=
EXTT4=
EXTT5=
EXTT6=
EXTT7=
EXTT8=
EXTT9=
EXTT10=
PLAYORDER=
